<svg width="30" height="30" viewBox="0 0 30 30" fill="none" xmlns="http://www.w3.org/2000/svg">
<g clip-path="url(#clip0_1242_1528)">
<path d="M25.6068 4.39369C19.7485 -1.46456 10.2519 -1.46456 4.39369 4.39369C-1.46456 10.2519 -1.46456 19.7485 4.39369 25.6068C10.2519 31.465 19.7485 31.465 25.6068 25.6068C31.465 19.7485 31.4638 10.2519 25.6068 4.39369ZM23.1636 11.2911L14.0486 20.4073C13.8236 20.6322 13.5185 20.7586 13.2003 20.7586C12.8821 20.7586 12.5769 20.6322 12.3519 20.4073L6.83683 14.891C6.72542 14.7796 6.63704 14.6474 6.57675 14.5018C6.51645 14.3562 6.48542 14.2002 6.48542 14.0426C6.48542 13.7244 6.61183 13.4193 6.83683 13.1943C7.06183 12.9693 7.367 12.8429 7.68521 12.8429C8.00341 12.8429 8.30858 12.9693 8.53359 13.1943L13.2003 17.861L21.4669 9.59316C21.5784 9.48175 21.7107 9.39339 21.8563 9.33312C22.002 9.27286 22.1581 9.24187 22.3157 9.24193C22.4733 9.24198 22.6293 9.27308 22.7749 9.33345C22.9205 9.39382 23.0528 9.48227 23.1642 9.59376C23.2756 9.70525 23.364 9.83759 23.4243 9.98323C23.4845 10.1289 23.5155 10.285 23.5155 10.4426C23.5154 10.6002 23.4843 10.7562 23.4239 10.9018C23.3636 11.0474 23.2751 11.1797 23.1636 11.2911Z" fill="#33C500"/>
</g>
<defs>
<clipPath id="clip0_1242_1528">
<rect width="30" height="30" fill="white"/>
</clipPath>
</defs>
</svg>
