<svg width="30" height="30" viewBox="0 0 30 30" fill="none" xmlns="http://www.w3.org/2000/svg">
<g clip-path="url(#clip0_1248_1531)">
<path d="M15 0C12.0333 0 9.13319 0.879735 6.66645 2.52796C4.19972 4.17618 2.27713 6.51886 1.14181 9.25975C0.00649926 12.0006 -0.290551 15.0166 0.288228 17.9264C0.867006 20.8361 2.29562 23.5088 4.3934 25.6066C6.49119 27.7044 9.16394 29.133 12.0737 29.7118C14.9834 30.2906 17.9994 29.9935 20.7403 28.8582C23.4811 27.7229 25.8238 25.8003 27.472 23.3335C29.1203 20.8668 30 17.9667 30 15C30 13.0302 29.612 11.0796 28.8582 9.25975C28.1044 7.43986 26.9995 5.78628 25.6066 4.3934C24.2137 3.00052 22.5601 1.89563 20.7403 1.14181C18.9204 0.387986 16.9698 0 15 0ZM15 27C11.8174 27 8.76516 25.7357 6.51472 23.4853C4.26429 21.2348 3.00001 18.1826 3.00001 15C2.99669 12.335 3.88953 9.74632 5.53501 7.65L22.35 24.465C20.2537 26.1105 17.665 27.0033 15 27ZM24.465 22.35L7.65 5.535C9.74632 3.88952 12.335 2.99669 15 3C18.1826 3 21.2348 4.26428 23.4853 6.51472C25.7357 8.76515 27 11.8174 27 15C27.0033 17.665 26.1105 20.2537 24.465 22.35Z" fill="#666666"/>
</g>
<defs>
<clipPath id="clip0_1248_1531">
<rect width="30" height="30" fill="white"/>
</clipPath>
</defs>
</svg>
