<svg width="30" height="30" viewBox="0 0 30 30" fill="none" xmlns="http://www.w3.org/2000/svg">
<g clip-path="url(#clip0_862_179)">
<path d="M19.779 24.74C20.479 24.74 20.969 24.11 20.899 23.34C20.269 18.51 16.419 14.8 11.799 14.8C7.17903 14.8 3.32903 18.51 2.69903 23.34C2.62903 24.04 3.11903 24.74 3.81903 24.74H19.779Z" fill="#FFFFFF"/>
<path d="M19.7815 24.95H3.82147C3.47147 24.95 3.12147 24.81 2.84147 24.53C2.56147 24.25 2.42147 23.83 2.49147 23.41C3.12147 18.44 7.11147 14.66 11.8015 14.66C16.4215 14.66 20.4115 18.44 21.1115 23.41C21.1815 23.83 21.0415 24.25 20.7615 24.53C20.4815 24.74 20.1315 24.95 19.7815 24.95ZM11.8015 15.01C7.32147 15.01 3.54147 18.58 2.91147 23.34C2.84147 23.62 2.98147 23.97 3.19147 24.18C3.40147 24.39 3.61147 24.46 3.89147 24.46H19.7815C20.0615 24.46 20.2715 24.32 20.4815 24.18C20.6915 23.97 20.7615 23.69 20.7615 23.34C20.0615 18.58 16.2815 15.01 11.8015 15.01Z" fill="#FFFFFF"/>
<path d="M11.8009 12.7C13.9658 12.7 15.7209 10.9449 15.7209 8.77999C15.7209 6.61503 13.9658 4.85999 11.8009 4.85999C9.6359 4.85999 7.88086 6.61503 7.88086 8.77999C7.88086 10.9449 9.6359 12.7 11.8009 12.7Z" fill="#FFFFFF"/>
<path d="M11.7999 12.91C9.48992 12.91 7.66992 11.09 7.66992 8.77999C7.66992 6.46999 9.48992 4.64999 11.7999 4.64999C14.1099 4.64999 15.9299 6.46999 15.9299 8.77999C15.9299 11.09 14.1099 12.91 11.7999 12.91ZM11.7999 5.06999C9.76992 5.06999 8.08992 6.74999 8.08992 8.77999C8.08992 10.81 9.76992 12.49 11.7999 12.49C13.8299 12.49 15.5099 10.81 15.5099 8.77999C15.5099 6.74999 13.8299 5.06999 11.7999 5.06999Z" fill="#FFFFFF"/>
<path d="M18 5L27 14M27 5L18 14" stroke="#FFFFFF" stroke-width="2" stroke-linecap="round" stroke-linejoin="round"/>
</g>
<defs>
<clipPath id="clip0_862_179">
<rect width="28" height="28" fill="white" transform="translate(1 1)"/>
</clipPath>
</defs>
</svg>
