<svg width="154" height="167" viewBox="0 0 154 167" fill="none" xmlns="http://www.w3.org/2000/svg">
<g clip-path="url(#clip0_33_190)">
<path d="M141.921 53.9574L125.24 45.1726V76.8281V80.2219L87.2706 104.31C82.2638 107.487 75.7366 107.487 70.7298 104.31L32.7598 80.2215V77.7762V45.1726L16.079 53.9574C13.6282 55.2483 12.1074 57.7008 12.1074 60.3627V152.088C12.1074 157.836 17.0122 162.495 23.0622 162.495H134.937C140.987 162.495 145.892 157.835 145.892 152.088V60.3627C145.892 57.7004 144.371 55.2479 141.921 53.9574Z" fill="url(#paint0_linear_33_190)"/>
<path d="M32.7603 80.2215L70.7299 104.31C75.7367 107.486 82.2639 107.486 87.2707 104.31L125.24 80.2215V76.8277V45.1722V15.0694C125.24 10.8495 121.639 7.42831 117.197 7.42831H42.2559C37.0115 7.42831 32.7603 11.467 32.7603 16.4491V45.1726V77.7762V80.2215Z" fill="#ECF4F7"/>
<path d="M79 48.6367C83.9326 48.6367 87.9312 44.838 87.9312 40.152C87.9312 35.4661 83.9326 31.6674 79 31.6674C74.0675 31.6674 70.0688 35.4661 70.0688 40.152C70.0688 44.838 74.0675 48.6367 79 48.6367Z" fill="white"/>
<path d="M32.7598 80.2211V77.7758V45.1722L16.079 53.957C13.6282 55.2479 12.1074 57.7004 12.1074 60.3623V67.0963L28.9666 77.8146L32.7598 80.2211Z" fill="#AAB1BA"/>
<path d="M125.24 76.8281V80.2215L130.677 76.7722L145.892 67.1107V60.3627C145.892 57.7004 144.371 55.2479 141.921 53.9574L125.24 45.1726V76.8281Z" fill="#AAB1BA"/>
<path d="M147.892 67.1172V60.3627C147.892 57.0118 145.975 53.9206 142.89 52.2957L127.239 44.0535V15.0694C127.239 9.80826 122.734 5.52832 117.196 5.52832H42.2558C35.917 5.52832 30.7602 10.4273 30.7602 16.4491V44.0535L15.1094 52.2957C12.0242 53.9206 10.1078 57.0118 10.1078 60.3627V67.1024C10.1078 67.1035 10.1078 67.105 10.1078 67.1062V81.4531C10.1078 82.5023 11.003 83.3531 12.1078 83.3531C13.2126 83.3531 14.1078 82.5023 14.1078 81.4531V70.6512L58.679 98.9452L18.817 124.235C17.8982 124.818 17.651 125.998 18.2642 126.87C18.6498 127.419 19.2834 127.715 19.9294 127.715C20.311 127.715 20.697 127.612 21.0378 127.395L62.279 101.231L69.619 105.89C72.3806 107.643 75.6902 108.519 78.9998 108.519C82.3094 108.519 85.6198 107.642 88.3814 105.89L95.7222 101.232L136.961 127.395C137.303 127.612 137.688 127.715 138.07 127.715C138.715 127.715 139.349 127.419 139.735 126.87C140.348 125.997 140.101 124.818 139.182 124.235L99.3226 98.9467L143.891 70.6649V152.088C143.891 156.779 139.874 160.595 134.936 160.595H23.0626C18.1246 160.595 14.1074 156.779 14.1074 152.088V98.4265C14.1074 97.3773 13.2122 96.5265 12.1074 96.5265C11.0026 96.5265 10.1074 97.3773 10.1074 98.4265V152.087V167.692C10.1074 174.478 15.919 179.999 23.0626 179.999H134.937C142.08 179.999 147.892 174.478 147.892 167.692V152.087V67.1206C147.892 67.1195 147.892 67.1183 147.892 67.1172ZM86.1598 102.73C81.9438 105.405 76.055 105.404 71.8406 102.73L14.1078 66.0809V60.3627C14.1078 58.392 15.2346 56.5745 17.049 55.6192L30.7602 48.3984V70.734C30.7602 71.7832 31.6554 72.634 32.7602 72.634C33.865 72.634 34.7602 71.7832 34.7602 70.734V16.4491C34.7602 12.5226 38.1226 9.32832 42.2558 9.32832H117.197C120.529 9.32832 123.24 11.9036 123.24 15.0694V70.7337C123.24 71.7828 124.135 72.6337 125.24 72.6337C126.345 72.6337 127.24 71.7828 127.24 70.7337V48.398L140.951 55.6188C142.765 56.5745 143.892 58.392 143.892 60.3623V66.0946L86.1598 102.73ZM143.892 167.693C143.892 172.384 139.875 176.2 134.937 176.2H23.0626C18.1246 176.2 14.1074 172.384 14.1074 167.693V160.973C14.1478 161.01 14.1906 161.045 14.2318 161.081C14.3066 161.147 14.3814 161.213 14.4578 161.278C14.5342 161.343 14.6122 161.406 14.6902 161.469C14.7678 161.532 14.8458 161.594 14.925 161.655C15.0046 161.716 15.0854 161.776 15.1666 161.836C15.2478 161.895 15.329 161.954 15.4118 162.012C15.4942 162.069 15.5782 162.125 15.6622 162.181C15.7458 162.237 15.8298 162.292 15.9154 162.346C16.0014 162.4 16.0886 162.452 16.1758 162.505C16.2622 162.556 16.3486 162.609 16.4366 162.658C16.5254 162.709 16.6154 162.757 16.7058 162.805C16.7946 162.853 16.8834 162.901 16.9734 162.947C17.0654 162.993 17.159 163.038 17.2526 163.083C17.3434 163.126 17.4338 163.17 17.5262 163.212C17.6214 163.255 17.7178 163.295 17.8142 163.336C17.907 163.375 17.9994 163.415 18.0934 163.452C18.1914 163.491 18.2906 163.527 18.3898 163.563C18.4846 163.598 18.579 163.634 18.675 163.667C18.7758 163.701 18.8778 163.733 18.9798 163.765C19.0758 163.795 19.1714 163.827 19.2686 163.855C19.3734 163.886 19.4794 163.913 19.5854 163.941C19.6818 163.966 19.7774 163.993 19.875 164.017C19.9842 164.043 20.095 164.065 20.205 164.089C20.301 164.11 20.3962 164.132 20.4926 164.151C20.6066 164.173 20.7218 164.19 20.8366 164.209C20.9318 164.225 21.0258 164.243 21.1214 164.257C21.243 164.274 21.3658 164.287 21.4886 164.301C21.579 164.312 21.6686 164.324 21.7598 164.333C21.8994 164.346 22.0406 164.355 22.1814 164.363C22.2566 164.368 22.3314 164.376 22.407 164.379C22.6202 164.39 22.8346 164.395 23.0502 164.395C23.0546 164.395 23.059 164.395 23.0634 164.395H23.0638H134.938H134.939C134.943 164.395 134.947 164.395 134.952 164.395C135.167 164.395 135.382 164.39 135.595 164.379C135.671 164.376 135.745 164.368 135.821 164.363C135.961 164.354 136.103 164.346 136.242 164.333C136.333 164.324 136.423 164.312 136.513 164.301C136.636 164.287 136.759 164.274 136.881 164.257C136.976 164.243 137.071 164.225 137.165 164.209C137.28 164.19 137.395 164.173 137.509 164.151C137.606 164.132 137.701 164.11 137.797 164.089C137.907 164.066 138.018 164.043 138.127 164.017C138.224 163.993 138.32 163.966 138.417 163.941C138.522 163.913 138.629 163.886 138.733 163.855C138.831 163.827 138.926 163.796 139.022 163.765C139.124 163.733 139.226 163.701 139.327 163.667C139.423 163.634 139.517 163.598 139.612 163.563C139.711 163.527 139.811 163.491 139.909 163.452C140.003 163.415 140.095 163.375 140.188 163.336C140.284 163.295 140.381 163.255 140.476 163.212C140.568 163.171 140.658 163.126 140.749 163.083C140.843 163.038 140.936 162.994 141.029 162.947C141.119 162.901 141.207 162.853 141.296 162.805C141.386 162.757 141.477 162.708 141.565 162.658C141.653 162.609 141.74 162.556 141.826 162.505C141.913 162.452 142.001 162.4 142.087 162.346C142.172 162.292 142.256 162.237 142.34 162.181C142.424 162.125 142.507 162.069 142.59 162.012C142.673 161.954 142.754 161.895 142.835 161.836C142.917 161.776 142.997 161.716 143.077 161.655C143.156 161.594 143.234 161.532 143.312 161.469C143.39 161.406 143.468 161.343 143.544 161.278C143.621 161.213 143.695 161.147 143.77 161.081C143.811 161.045 143.854 161.01 143.895 160.973V167.693H143.892ZM10.1078 90.32V88.5465C10.1078 87.4974 11.003 86.6465 12.1078 86.6465C13.2126 86.6465 14.1078 87.4974 14.1078 88.5465V90.32C14.1078 91.3692 13.2126 92.22 12.1078 92.22C11.003 92.22 10.1078 91.3692 10.1078 90.32ZM101.898 73.2626C101.898 74.3117 101.003 75.1626 99.8982 75.1626H58.1014C56.9966 75.1626 56.1014 74.3117 56.1014 73.2626C56.1014 72.2134 56.9966 71.3625 58.1014 71.3625H99.8982C101.003 71.3625 101.898 72.2134 101.898 73.2626ZM101.898 81.963C101.898 83.0122 101.003 83.863 99.8982 83.863H58.1014C56.9966 83.863 56.1014 83.0122 56.1014 81.963C56.1014 80.9138 56.9966 80.063 58.1014 80.063H99.8982C101.003 80.063 101.898 80.9138 101.898 81.963ZM103.255 40.152V44.7405C103.255 45.7897 102.36 46.6405 101.255 46.6405C100.15 46.6405 99.255 45.7897 99.255 44.7405V40.152C99.255 29.542 90.1686 20.91 78.9998 20.91C67.831 20.91 58.7446 29.542 58.7446 40.152C58.7446 50.762 67.831 59.3941 78.9998 59.3941H87.0114C88.1162 59.3941 89.0114 60.2449 89.0114 61.2941C89.0114 62.3433 88.1162 63.1941 87.0114 63.1941H78.9998C65.6254 63.1941 54.7446 52.8573 54.7446 40.152C54.7446 27.4467 65.6254 17.11 78.9998 17.11C92.3742 17.11 103.255 27.4463 103.255 40.152ZM89.931 30.8812C89.931 29.832 89.0358 28.9812 87.931 28.9812C86.8262 28.9812 85.931 29.832 85.931 30.8812V32.1283C84.0434 30.6539 81.6286 29.7674 78.9998 29.7674C72.9726 29.7674 68.0686 34.4258 68.0686 40.152C68.0686 45.8782 72.9726 50.5367 78.9998 50.5367C81.6446 50.5367 84.0726 49.6395 85.9654 48.1487C86.3078 51.4445 89.2418 54.0277 92.7994 54.0277H95.7758C96.8806 54.0277 97.7758 53.1769 97.7758 52.1277C97.7758 51.0785 96.8806 50.2277 95.7758 50.2277H92.7994C91.2178 50.2277 89.931 49.0053 89.931 47.5027V30.8812ZM78.9998 46.7367C75.1778 46.7367 72.0686 43.7829 72.0686 40.152C72.0686 36.5211 75.1778 33.5674 78.9998 33.5674C82.8218 33.5674 85.931 36.5211 85.931 40.152C85.931 43.7829 82.8218 46.7367 78.9998 46.7367ZM92.2814 61.2941C92.2814 60.2449 93.1766 59.3941 94.2814 59.3941H95.1346C96.2394 59.3941 97.1346 60.2449 97.1346 61.2941C97.1346 62.3433 96.2394 63.1941 95.1346 63.1941H94.2814C93.1766 63.1941 92.2814 62.3433 92.2814 61.2941ZM14.2522 33.5552C14.2522 32.506 15.1474 31.6552 16.2522 31.6552H17.9274V30.0638C17.9274 29.0146 18.8226 28.1638 19.9274 28.1638C21.0322 28.1638 21.9274 29.0146 21.9274 30.0638V31.6552H23.6026C24.7074 31.6552 25.6026 32.506 25.6026 33.5552C25.6026 34.6044 24.7074 35.4552 23.6026 35.4552H21.9274V37.047C21.9274 38.0962 21.0322 38.947 19.9274 38.947C18.8226 38.947 17.9274 38.0962 17.9274 37.047V35.4552H16.2522C15.1474 35.4552 14.2522 34.6044 14.2522 33.5552ZM133.566 17.9034C133.566 16.8542 134.461 16.0034 135.566 16.0034H137.241V14.4116C137.241 13.3624 138.136 12.5116 139.241 12.5116C140.346 12.5116 141.241 13.3624 141.241 14.4116V16.0034H142.916C144.021 16.0034 144.916 16.8542 144.916 17.9034C144.916 18.9526 144.021 19.8034 142.916 19.8034H141.241V21.3948C141.241 22.444 140.346 23.2948 139.241 23.2948C138.136 23.2948 137.241 22.444 137.241 21.3948V19.8034H135.566C134.461 19.8034 133.566 18.9526 133.566 17.9034ZM69.2914 -4.60856C69.2914 -5.65774 70.1866 -6.50856 71.2914 -6.50856H72.9666V-8.1C72.9666 -9.14918 73.8618 -10 74.9666 -10C76.0714 -10 76.9666 -9.14918 76.9666 -8.1V-6.50856H78.6418C79.7466 -6.50856 80.6418 -5.65774 80.6418 -4.60856C80.6418 -3.55938 79.7466 -2.70856 78.6418 -2.70856H76.9666V-1.11712C76.9666 -0.0679407 76.0714 0.782879 74.9666 0.782879C73.8618 0.782879 72.9666 -0.0679407 72.9666 -1.11712V-2.70856H71.2914C70.1866 -2.70856 69.2914 -3.559 69.2914 -4.60856Z" fill="#1C1D21"/>
</g>
<defs>
<linearGradient id="paint0_linear_33_190" x1="78.9996" y1="45.1726" x2="79" y2="181.5" gradientUnits="userSpaceOnUse">
<stop offset="0.30424" stop-color="#E1AC7B"/>
<stop offset="1" stop-color="#5A513F" stop-opacity="0"/>
</linearGradient>
<clipPath id="clip0_33_190">
<rect width="154" height="167" fill="white"/>
</clipPath>
</defs>
</svg>
