<svg width="76" height="22" viewBox="0 0 76 22" fill="none" xmlns="http://www.w3.org/2000/svg">
<path d="M5.2 16.14C4.22667 16.14 3.34667 15.9733 2.56 15.64C1.78667 15.3067 1.17333 14.8267 0.72 14.2C0.266667 13.5733 0.0333334 12.8333 0.0200001 11.98H3.02C3.06 12.5533 3.26 13.0067 3.62 13.34C3.99333 13.6733 4.5 13.84 5.14 13.84C5.79333 13.84 6.30667 13.6867 6.68 13.38C7.05333 13.06 7.24 12.6467 7.24 12.14C7.24 11.7267 7.11333 11.3867 6.86 11.12C6.60667 10.8533 6.28667 10.6467 5.9 10.5C5.52667 10.34 5.00667 10.1667 4.34 9.98C3.43333 9.71333 2.69333 9.45333 2.12 9.2C1.56 8.93333 1.07333 8.54 0.66 8.02C0.26 7.48667 0.0600001 6.78 0.0600001 5.9C0.0600001 5.07333 0.266667 4.35333 0.68 3.74C1.09333 3.12667 1.67333 2.66 2.42 2.34C3.16667 2.00667 4.02 1.84 4.98 1.84C6.42 1.84 7.58667 2.19333 8.48 2.9C9.38667 3.59333 9.88667 4.56667 9.98 5.82H6.9C6.87333 5.34 6.66667 4.94667 6.28 4.64C5.90667 4.32 5.40667 4.16 4.78 4.16C4.23333 4.16 3.79333 4.3 3.46 4.58C3.14 4.86 2.98 5.26667 2.98 5.8C2.98 6.17333 3.1 6.48667 3.34 6.74C3.59333 6.98 3.9 7.18 4.26 7.34C4.63333 7.48667 5.15333 7.66 5.82 7.86C6.72667 8.12667 7.46667 8.39333 8.04 8.66C8.61333 8.92667 9.10667 9.32667 9.52 9.86C9.93333 10.3933 10.14 11.0933 10.14 11.96C10.14 12.7067 9.94667 13.4 9.56 14.04C9.17333 14.68 8.60667 15.1933 7.86 15.58C7.11333 15.9533 6.22667 16.14 5.2 16.14ZM15.8275 7.22V12.58C15.8275 12.9533 15.9142 13.2267 16.0875 13.4C16.2742 13.56 16.5808 13.64 17.0075 13.64H18.3075V16H16.5475C14.1875 16 13.0075 14.8533 13.0075 12.56V7.22H11.6875V4.92H13.0075V2.18H15.8275V4.92H18.3075V7.22H15.8275ZM19.6014 10.42C19.6014 9.3 19.8214 8.30667 20.2614 7.44C20.7147 6.57333 21.3214 5.90667 22.0814 5.44C22.8547 4.97333 23.7147 4.74 24.6614 4.74C25.4881 4.74 26.2081 4.90667 26.8214 5.24C27.4481 5.57333 27.9481 5.99333 28.3214 6.5V4.92H31.1414V16H28.3214V14.38C27.9614 14.9 27.4614 15.3333 26.8214 15.68C26.1947 16.0133 25.4681 16.18 24.6414 16.18C23.7081 16.18 22.8547 15.94 22.0814 15.46C21.3214 14.98 20.7147 14.3067 20.2614 13.44C19.8214 12.56 19.6014 11.5533 19.6014 10.42ZM28.3214 10.46C28.3214 9.78 28.1881 9.2 27.9214 8.72C27.6547 8.22667 27.2947 7.85333 26.8414 7.6C26.3881 7.33333 25.9014 7.2 25.3814 7.2C24.8614 7.2 24.3814 7.32667 23.9414 7.58C23.5014 7.83333 23.1414 8.20667 22.8614 8.7C22.5947 9.18 22.4614 9.75333 22.4614 10.42C22.4614 11.0867 22.5947 11.6733 22.8614 12.18C23.1414 12.6733 23.5014 13.0533 23.9414 13.32C24.3947 13.5867 24.8747 13.72 25.3814 13.72C25.9014 13.72 26.3881 13.5933 26.8414 13.34C27.2947 13.0733 27.6547 12.7 27.9214 12.22C28.1881 11.7267 28.3214 11.14 28.3214 10.46ZM40.4361 16L36.6761 11.28V16H33.8761V1.2H36.6761V9.62L40.3961 4.92H44.0361L39.1561 10.48L44.0761 16H40.4361ZM46.9758 3.6C46.4824 3.6 46.0691 3.44667 45.7358 3.14C45.4158 2.82 45.2558 2.42667 45.2558 1.96C45.2558 1.49333 45.4158 1.10667 45.7358 0.799999C46.0691 0.479999 46.4824 0.319999 46.9758 0.319999C47.4691 0.319999 47.8758 0.479999 48.1958 0.799999C48.5291 1.10667 48.6958 1.49333 48.6958 1.96C48.6958 2.42667 48.5291 2.82 48.1958 3.14C47.8758 3.44667 47.4691 3.6 46.9758 3.6ZM48.3558 4.92V16H45.5558V4.92H48.3558ZM57.2622 4.76C58.5822 4.76 59.6489 5.18 60.4622 6.02C61.2755 6.84667 61.6822 8.00667 61.6822 9.5V16H58.8822V9.88C58.8822 9 58.6622 8.32667 58.2222 7.86C57.7822 7.38 57.1822 7.14 56.4222 7.14C55.6489 7.14 55.0355 7.38 54.5822 7.86C54.1422 8.32667 53.9222 9 53.9222 9.88V16H51.1222V4.92H53.9222V6.3C54.2955 5.82 54.7689 5.44667 55.3422 5.18C55.9289 4.9 56.5689 4.76 57.2622 4.76ZM68.6848 4.74C69.5115 4.74 70.2382 4.90667 70.8648 5.24C71.4915 5.56 71.9848 5.98 72.3448 6.5V4.92H75.1648V16.08C75.1648 17.1067 74.9582 18.02 74.5448 18.82C74.1315 19.6333 73.5115 20.2733 72.6848 20.74C71.8582 21.22 70.8582 21.46 69.6848 21.46C68.1115 21.46 66.8182 21.0933 65.8048 20.36C64.8048 19.6267 64.2382 18.6267 64.1048 17.36H66.8848C67.0315 17.8667 67.3448 18.2667 67.8248 18.56C68.3182 18.8667 68.9115 19.02 69.6048 19.02C70.4182 19.02 71.0782 18.7733 71.5848 18.28C72.0915 17.8 72.3448 17.0667 72.3448 16.08V14.36C71.9848 14.88 71.4848 15.3133 70.8448 15.66C70.2182 16.0067 69.4982 16.18 68.6848 16.18C67.7515 16.18 66.8982 15.94 66.1248 15.46C65.3515 14.98 64.7382 14.3067 64.2848 13.44C63.8448 12.56 63.6248 11.5533 63.6248 10.42C63.6248 9.3 63.8448 8.30667 64.2848 7.44C64.7382 6.57333 65.3448 5.90667 66.1048 5.44C66.8782 4.97333 67.7382 4.74 68.6848 4.74ZM72.3448 10.46C72.3448 9.78 72.2115 9.2 71.9448 8.72C71.6782 8.22667 71.3182 7.85333 70.8648 7.6C70.4115 7.33333 69.9248 7.2 69.4048 7.2C68.8848 7.2 68.4048 7.32667 67.9648 7.58C67.5248 7.83333 67.1648 8.20667 66.8848 8.7C66.6182 9.18 66.4848 9.75333 66.4848 10.42C66.4848 11.0867 66.6182 11.6733 66.8848 12.18C67.1648 12.6733 67.5248 13.0533 67.9648 13.32C68.4182 13.5867 68.8982 13.72 69.4048 13.72C69.9248 13.72 70.4115 13.5933 70.8648 13.34C71.3182 13.0733 71.6782 12.7 71.9448 12.22C72.2115 11.7267 72.3448 11.14 72.3448 10.46Z" fill="white"/>
</svg>
