<svg width="24" height="24" viewBox="0 0 24 24" fill="currentColor" stroke="currentColor" stroke-linecap="round" xmlns="http://www.w3.org/2000/svg">
<mask id="path-1-inside-1_1_76" fill="white">
<path fill-rule="evenodd" clip-rule="evenodd" d="M2 0C0.895431 0 0 0.895431 0 2V9C0 10.1046 0.895431 11 2 11H9C10.1046 11 11 10.1046 11 9V2C11 0.895431 10.1046 0 9 0H2ZM15 0C13.8954 0 13 0.895431 13 2V9C13 10.1046 13.8954 11 15 11H22C23.1046 11 24 10.1046 24 9V2C24 0.895431 23.1046 0 22 0H15ZM13 15C13 13.8954 13.8954 13 15 13H22C23.1046 13 24 13.8954 24 15V22C24 23.1046 23.1046 24 22 24H15C13.8954 24 13 23.1046 13 22V15ZM2 13C0.895431 13 0 13.8954 0 15V22C0 23.1046 0.895431 24 2 24H9C10.1046 24 11 23.1046 11 22V15C11 13.8954 10.1046 13 9 13H2Z"/>
</mask>
<path d="M2 2V-2C-0.209139 -2 -2 -0.209139 -2 2H2ZM2 9V2H-2V9H2ZM2 9H-2C-2 11.2091 -0.209139 13 2 13V9ZM9 9H2V13H9V9ZM9 9V13C11.2091 13 13 11.2091 13 9H9ZM9 2V9H13V2H9ZM9 2H13C13 -0.209139 11.2091 -2 9 -2V2ZM2 2H9V-2H2V2ZM15 2V-2C12.7909 -2 11 -0.209139 11 2H15ZM15 9V2H11V9H15ZM15 9H11C11 11.2091 12.7909 13 15 13V9ZM22 9H15V13H22V9ZM22 9V13C24.2091 13 26 11.2091 26 9H22ZM22 2V9H26V2H22ZM22 2H26C26 -0.20914 24.2091 -2 22 -2V2ZM15 2H22V-2H15V2ZM15 11C12.7909 11 11 12.7909 11 15H15V11ZM22 11H15V15H22V11ZM26 15C26 12.7909 24.2091 11 22 11V15H26ZM26 22V15H22V22H26ZM22 26C24.2091 26 26 24.2091 26 22H22V26ZM15 26H22V22H15V26ZM11 22C11 24.2091 12.7909 26 15 26V22H11ZM11 15V22H15V15H11ZM2 15V11C-0.209139 11 -2 12.7909 -2 15H2ZM2 22V15H-2V22H2ZM2 22H-2C-2 24.2091 -0.20914 26 2 26V22ZM9 22H2V26H9V22ZM9 22V26C11.2091 26 13 24.2091 13 22H9ZM9 15V22H13V15H9ZM9 15H13C13 12.7909 11.2091 11 9 11V15ZM2 15H9V11H2V15Z"  mask="url(#path-1-inside-1_1_76)"/>
</svg>
