<svg width="18" height="24" viewBox="0 0 18 24" fill="none" xmlns="http://www.w3.org/2000/svg">
<path fill-rule="evenodd" clip-rule="evenodd" d="M16 10H17C17.553 10 18 10.447 18 11V23C18 23.553 17.553 24 17 24H1C0.447 24 0 23.553 0 23V11C0 10.447 0.447 10 1 10H2V7C2 3.134 5.134 0 9 0C12.866 0 16 3.134 16 7V10ZM9 2C6.238 2 4 4.238 4 7V10H14V7C14 4.238 11.762 2 9 2ZM2 22V12H16V22H2ZM8 19V17.723C7.404 17.376 7 16.738 7 16C7 14.896 7.896 14 9 14C10.104 14 11 14.896 11 16C11 16.739 10.596 17.376 10 17.723V19C10 19.553 9.553 20 9 20C8.447 20 8 19.553 8 19Z" fill="white"/>
</svg>
