<svg width="35" height="35" viewBox="0 0 30 30" fill="none" xmlns="http://www.w3.org/2000/svg">
<rect x="7.75" y="4.75" width="15.5" height="20.5" rx="1.25" stroke="#FFFFFF" stroke-width="1"/>
<rect x="6.75" y="3.41669" width="17.5" height="23.1667" rx="1.38333" stroke="#FFFFFF" stroke-width="1"/>
<g clip-path="url(#clip0_569_783)">
<path d="M11.4375 13.0625C10.5437 13.0625 9.8125 12.3312 9.8125 11.4375C9.8125 10.5437 10.5437 9.8125 11.4375 9.8125C12.3312 9.8125 13.0625 10.5437 13.0625 11.4375C13.0625 12.3312 12.3312 13.0625 11.4375 13.0625ZM11.4375 10.2188C10.7469 10.2188 10.2188 10.7469 10.2188 11.4375C10.2188 12.1281 10.7469 12.6562 11.4375 12.6562C12.1281 12.6562 12.6562 12.1281 12.6562 11.4375C12.6562 10.7469 12.1281 10.2188 11.4375 10.2188Z" fill="#FFFFFF"/>
<path d="M11.4373 12.25C11.2342 12.25 11.0311 12.1688 10.8686 12.0063C10.7873 11.925 10.7873 11.8031 10.8686 11.7219C10.9498 11.6406 11.0717 11.6406 11.1529 11.7219C11.3154 11.8844 11.5592 11.8844 11.7217 11.7219C11.8029 11.6406 11.9248 11.6406 12.0061 11.7219C12.0873 11.8031 12.0873 11.925 12.0061 12.0063C11.8436 12.1688 11.6404 12.25 11.4373 12.25Z" fill="#FFFFFF"/>
<path d="M10.9502 11.2344C11.0624 11.2344 11.1533 11.1434 11.1533 11.0312C11.1533 10.9191 11.0624 10.8281 10.9502 10.8281C10.838 10.8281 10.7471 10.9191 10.7471 11.0312C10.7471 11.1434 10.838 11.2344 10.9502 11.2344Z" fill="#FFFFFF"/>
<path d="M11.9658 11.2344C12.078 11.2344 12.1689 11.1434 12.1689 11.0312C12.1689 10.9191 12.078 10.8281 11.9658 10.8281C11.8536 10.8281 11.7627 10.9191 11.7627 11.0312C11.7627 11.1434 11.8536 11.2344 11.9658 11.2344Z" fill="#FFFFFF"/>
<path d="M11.4375 17.125C10.5437 17.125 9.8125 16.3937 9.8125 15.5C9.8125 14.6062 10.5437 13.875 11.4375 13.875C12.3312 13.875 13.0625 14.6062 13.0625 15.5C13.0625 16.3937 12.3312 17.125 11.4375 17.125ZM11.4375 14.2812C10.7469 14.2812 10.2188 14.8094 10.2188 15.5C10.2188 16.1906 10.7469 16.7188 11.4375 16.7188C12.1281 16.7188 12.6562 16.1906 12.6562 15.5C12.6562 14.8094 12.1281 14.2812 11.4375 14.2812Z" fill="#FFFFFF"/>
<path d="M11.884 16.1094H10.9902C10.8684 16.1094 10.7871 16.0281 10.7871 15.9062C10.7871 15.7844 10.8684 15.7031 10.9902 15.7031H11.8434C11.9652 15.7031 12.0465 15.7844 12.0465 15.9062C12.0465 16.0281 11.9652 16.1094 11.884 16.1094Z" fill="#FFFFFF"/>
<path d="M10.9502 15.2969C11.0624 15.2969 11.1533 15.2059 11.1533 15.0938C11.1533 14.9816 11.0624 14.8906 10.9502 14.8906C10.838 14.8906 10.7471 14.9816 10.7471 15.0938C10.7471 15.2059 10.838 15.2969 10.9502 15.2969Z" fill="#FFFFFF"/>
<path d="M11.9658 15.2969C12.078 15.2969 12.1689 15.2059 12.1689 15.0938C12.1689 14.9816 12.078 14.8906 11.9658 14.8906C11.8536 14.8906 11.7627 14.9816 11.7627 15.0938C11.7627 15.2059 11.8536 15.2969 11.9658 15.2969Z" fill="#FFFFFF"/>
<path d="M11.4375 21.1875C10.5437 21.1875 9.8125 20.4562 9.8125 19.5625C9.8125 18.6687 10.5437 17.9375 11.4375 17.9375C12.3312 17.9375 13.0625 18.6687 13.0625 19.5625C13.0625 20.4562 12.3312 21.1875 11.4375 21.1875ZM11.4375 18.3438C10.7469 18.3438 10.2188 18.8719 10.2188 19.5625C10.2188 20.2531 10.7469 20.7812 11.4375 20.7812C12.1281 20.7812 12.6562 20.2531 12.6562 19.5625C12.6562 18.8719 12.1281 18.3438 11.4375 18.3438Z" fill="#FFFFFF"/>
<path d="M11.8842 20.375C11.8436 20.375 11.7623 20.375 11.7217 20.3344C11.5592 20.1719 11.3154 20.1719 11.1529 20.3344C11.0717 20.4156 10.9498 20.4156 10.8686 20.3344C10.7873 20.2531 10.7873 20.1313 10.8686 20.05C11.1529 19.7656 11.7217 19.7656 12.0061 20.05C12.0873 20.1313 12.0873 20.2531 12.0061 20.3344C11.9654 20.375 11.9248 20.375 11.8842 20.375Z" fill="#FFFFFF"/>
<path d="M10.9502 19.3594C11.0624 19.3594 11.1533 19.2684 11.1533 19.1562C11.1533 19.0441 11.0624 18.9531 10.9502 18.9531C10.838 18.9531 10.7471 19.0441 10.7471 19.1562C10.7471 19.2684 10.838 19.3594 10.9502 19.3594Z" fill="#FFFFFF"/>
<path d="M11.9658 19.3594C12.078 19.3594 12.1689 19.2684 12.1689 19.1562C12.1689 19.0441 12.078 18.9531 11.9658 18.9531C11.8536 18.9531 11.7627 19.0441 11.7627 19.1562C11.7627 19.2684 11.8536 19.3594 11.9658 19.3594Z" fill="#FFFFFF"/>
<path d="M16.1094 12.6562H14.0781C13.9562 12.6562 13.875 12.575 13.875 12.4531V10.4219C13.875 10.3 13.9562 10.2188 14.0781 10.2188H16.1094C16.2313 10.2188 16.3125 10.3 16.3125 10.4219V12.4531C16.3125 12.575 16.2313 12.6562 16.1094 12.6562ZM14.2812 12.25H15.9062V10.625H14.2812V12.25Z" fill="#FFFFFF"/>
<path d="M15.2562 12.0469C15.2156 12.0469 15.1344 12.0469 15.0938 12.0063L14.525 11.4375C14.4438 11.3563 14.4438 11.2344 14.525 11.1531C14.6063 11.0719 14.7281 11.0719 14.8094 11.1531L15.2562 11.6L16.5563 10.3C16.6375 10.2188 16.7594 10.2188 16.8406 10.3C16.9219 10.3813 16.9219 10.5031 16.8406 10.5844L15.4188 12.0063C15.3781 12.0063 15.3375 12.0469 15.2562 12.0469ZM16.1094 16.7188H14.0781C13.9562 16.7188 13.875 16.6375 13.875 16.5156V14.4844C13.875 14.3625 13.9562 14.2813 14.0781 14.2813H16.1094C16.2313 14.2813 16.3125 14.3625 16.3125 14.4844V16.5156C16.3125 16.6375 16.2313 16.7188 16.1094 16.7188ZM14.2812 16.3125H15.9062V14.6875H14.2812V16.3125ZM16.1094 20.7813H14.0781C13.9562 20.7813 13.875 20.7 13.875 20.5781V18.5469C13.875 18.425 13.9562 18.3438 14.0781 18.3438H16.1094C16.2313 18.3438 16.3125 18.425 16.3125 18.5469V20.5781C16.3125 20.7 16.2313 20.7813 16.1094 20.7813ZM14.2812 20.375H15.9062V18.75H14.2812V20.375ZM20.9844 19.1563H17.3281C17.2062 19.1563 17.125 19.075 17.125 18.9531C17.125 18.8313 17.2062 18.75 17.3281 18.75H20.9844C21.1062 18.75 21.1875 18.8313 21.1875 18.9531C21.1875 19.075 21.1062 19.1563 20.9844 19.1563ZM19.7656 19.9688H17.3281C17.2062 19.9688 17.125 19.8875 17.125 19.7656C17.125 19.6438 17.2062 19.5625 17.3281 19.5625H19.7656C19.8875 19.5625 19.9688 19.6438 19.9688 19.7656C19.9688 19.8875 19.8875 19.9688 19.7656 19.9688ZM20.9844 15.0938H17.3281C17.2062 15.0938 17.125 15.0125 17.125 14.8906C17.125 14.7688 17.2062 14.6875 17.3281 14.6875H20.9844C21.1062 14.6875 21.1875 14.7688 21.1875 14.8906C21.1875 15.0125 21.1062 15.0938 20.9844 15.0938ZM19.7656 15.9063H17.3281C17.2062 15.9063 17.125 15.825 17.125 15.7031C17.125 15.5813 17.2062 15.5 17.3281 15.5H19.7656C19.8875 15.5 19.9688 15.5813 19.9688 15.7031C19.9688 15.825 19.8875 15.9063 19.7656 15.9063ZM20.9844 11.0313H17.3281C17.2062 11.0313 17.125 10.95 17.125 10.8281C17.125 10.7063 17.2062 10.625 17.3281 10.625H20.9844C21.1062 10.625 21.1875 10.7063 21.1875 10.8281C21.1875 10.95 21.1062 11.0313 20.9844 11.0313ZM19.7656 11.8438H17.3281C17.2062 11.8438 17.125 11.7625 17.125 11.6406C17.125 11.5188 17.2062 11.4375 17.3281 11.4375H19.7656C19.8875 11.4375 19.9688 11.5188 19.9688 11.6406C19.9688 11.7625 19.8875 11.8438 19.7656 11.8438Z" fill="#FFFFFF"/>
</g>
<defs>
<clipPath id="clip0_569_783">
<rect width="13" height="13" fill="white" transform="translate(9 9)"/>
</clipPath>
</defs>
</svg>
