<svg width="35" height="35" viewBox="0 0 25 25" fill="none" xmlns="http://www.w3.org/2000/svg">
<g clip-path="url(#clip0_569_742)">
<path d="M0.5 12.925C0.5 13.8 0.6 14.65 0.8 15.5C0.825 15.625 0.925 15.7 1.05 15.7H1.1C1.225 15.675 1.325 15.525 1.275 15.4C1.1 14.575 1 13.75 1 12.925C1 7.79998 4.55 3.42498 9.5 2.34998L8.8 3.44998C8.725 3.57498 8.75 3.72498 8.875 3.79998C8.925 3.82498 8.975 3.84998 9 3.84998C9.075 3.84998 9.175 3.79998 9.2 3.72498L10.2 2.14998C10.25 2.07498 10.275 1.99998 10.25 1.92498C10.225 1.84998 10.2 1.79998 10.15 1.77498L8.55 0.774976C8.425 0.699976 8.275 0.724976 8.2 0.849976C8.125 0.974976 8.15 1.12498 8.275 1.19998L9.325 1.87498C4.175 3.02498 0.5 7.57498 0.5 12.925ZM21.35 18.65C21.225 18.575 21.075 18.6 21 18.725C19 21.875 15.575 23.75 11.85 23.75C8.325 23.75 5.1 22.075 3.05 19.25L4.25 19.525C4.375 19.55 4.525 19.475 4.55 19.35C4.575 19.225 4.5 19.075 4.375 19.05L2.55 18.625C2.475 18.6 2.425 18.625 2.35 18.65C2.3 18.7 2.25 18.75 2.225 18.8L1.8 20.625C1.775 20.75 1.85 20.9 1.975 20.925H2.025C2.15 20.925 2.25 20.85 2.275 20.725L2.575 19.45C4.7 22.45 8.125 24.25 11.825 24.25C15.725 24.25 19.3 22.275 21.4 18.975C21.5 18.875 21.45 18.725 21.35 18.65ZM24.125 14.25L23 14.925C23.125 14.275 23.175 13.6 23.175 12.925C23.175 7.37498 19.2 2.67498 13.725 1.74998C13.575 1.72498 13.45 1.82498 13.425 1.94998C13.4 2.07498 13.5 2.22498 13.625 2.24998C18.85 3.12498 22.65 7.62498 22.65 12.95C22.65 13.575 22.6 14.2 22.5 14.8L21.85 13.75C21.775 13.625 21.625 13.6 21.5 13.675C21.375 13.75 21.35 13.9 21.425 14.025L22.4 15.625C22.425 15.675 22.5 15.725 22.55 15.725H22.6C22.65 15.725 22.7 15.7 22.725 15.7L24.325 14.725C24.45 14.65 24.475 14.5 24.4 14.375C24.4 14.2 24.225 14.175 24.125 14.25Z" fill="#FFFFFF"/>
<path d="M11.775 4.47498C7.075 4.47498 3.25 8.29998 3.25 13C3.25 17.7 7.075 21.525 11.775 21.525C16.475 21.525 20.3 17.7 20.3 13C20.3 8.29998 16.475 4.47498 11.775 4.47498ZM11.775 21.025C7.35 21.025 3.75 17.425 3.75 13C3.75 8.57498 7.35 4.97498 11.775 4.97498C16.2 4.97498 19.8 8.57498 19.8 13C19.8 17.425 16.2 21.025 11.775 21.025Z" fill="#FFFFFF"/>
<path d="M11.9998 12.125V8.55005C11.9998 8.40005 11.8998 8.30005 11.7498 8.30005C11.5998 8.30005 11.4998 8.40005 11.4998 8.55005V12.15C11.2498 12.225 11.0498 12.425 10.9498 12.675H8.2998C8.1498 12.675 8.0498 12.775 8.0498 12.925C8.0498 13.075 8.1498 13.175 8.2998 13.175H10.8998C10.9998 13.575 11.3498 13.9 11.7748 13.9C12.2748 13.9 12.6748 13.475 12.6748 13C12.6748 12.575 12.3748 12.225 11.9998 12.125ZM11.7748 13.4C11.5498 13.4 11.3748 13.2 11.3748 13V12.95C11.3998 12.75 11.5498 12.6 11.7748 12.6C11.9998 12.6 12.1748 12.8 12.1748 13C12.1748 13.2 11.9998 13.4 11.7748 13.4Z" fill="#FFFFFF"/>
<path d="M16.5754 8.19998C16.5504 8.19998 16.5504 8.19998 16.5754 8.19998C15.3254 6.97498 13.6504 6.22498 11.8004 6.22498C9.95039 6.22498 8.25039 6.97498 7.02539 8.19998H7.00039C6.97539 8.19998 7.00039 8.19998 7.00039 8.22498C5.77539 9.44998 5.02539 11.125 5.02539 13C5.02539 14.875 5.77539 16.55 7.00039 17.775V17.8C7.00039 17.825 7.00039 17.8 7.02539 17.8C8.25039 19 9.92539 19.75 11.7754 19.75C13.6254 19.75 15.3254 19 16.5504 17.775H16.5754C16.6004 17.775 16.5754 17.775 16.5754 17.75C17.8004 16.525 18.5504 14.85 18.5504 12.975C18.5504 11.1 17.8004 9.44998 16.5754 8.19998C16.5754 8.22498 16.5754 8.19998 16.5754 8.19998ZM17.5004 13.25H18.0504C18.0004 14.8 17.3754 16.175 16.4004 17.25L16.0004 16.85C15.9004 16.75 15.7504 16.75 15.6504 16.85C15.5504 16.95 15.5504 17.1 15.6504 17.2L16.0254 17.575C14.9754 18.55 13.5754 19.175 12.0254 19.225V18.675C12.0254 18.525 11.9254 18.425 11.7754 18.425C11.6254 18.425 11.5254 18.525 11.5254 18.675V19.25C9.97539 19.2 8.60039 18.575 7.52539 17.6L7.90039 17.225C8.00039 17.125 8.00039 16.975 7.90039 16.875C7.80039 16.775 7.65039 16.775 7.55039 16.875L7.17539 17.25C6.20039 16.2 5.57539 14.8 5.52539 13.25H6.07539C6.22539 13.25 6.32539 13.15 6.32539 13C6.32539 12.85 6.22539 12.75 6.07539 12.75H5.52539C5.57539 11.2 6.20039 9.82498 7.17539 8.74998L7.55039 9.12498C7.60039 9.17498 7.67539 9.19998 7.72539 9.19998C7.77539 9.19998 7.85039 9.17498 7.90039 9.12498C8.00039 9.02498 8.00039 8.87498 7.90039 8.77498L7.52539 8.39998C8.57539 7.42498 9.97539 6.79998 11.5254 6.74998V7.29998C11.5254 7.44998 11.6254 7.54998 11.7754 7.54998C11.9254 7.54998 12.0254 7.44998 12.0254 7.29998V6.74998C13.5754 6.79998 14.9504 7.42498 16.0254 8.39998L15.6504 8.77498C15.5504 8.87498 15.5504 9.02498 15.6504 9.12498C15.7004 9.17498 15.7754 9.19998 15.8254 9.19998C15.8754 9.19998 15.9504 9.17498 16.0004 9.12498L16.3754 8.74998C17.3504 9.79998 17.9754 11.2 18.0254 12.75H17.5004C17.3504 12.75 17.2504 12.85 17.2504 13C17.2504 13.15 17.3504 13.25 17.5004 13.25Z" fill="#FFFFFF"/>
</g>
<defs>
<clipPath id="clip0_569_742">
<rect width="25" height="25" fill="white"/>
</clipPath>
</defs>
</svg>
