<svg width="30" height="30" viewBox="0 0 30 30" fill="none" xmlns="http://www.w3.org/2000/svg">
<path fill-rule="evenodd" clip-rule="evenodd" d="M5.69234 4.55001H17.1156C17.7465 4.55001 18.258 5.06145 18.258 5.69234V6.79203C18.258 9.22213 16.288 11.1921 13.8579 11.1921H12.8849C11.9502 11.1921 11.1925 11.9498 11.1925 12.8844V13.8579C11.1925 16.288 9.22256 18.258 6.79246 18.258H5.69234C5.06145 18.258 4.55001 17.7465 4.55001 17.1156V5.69234C4.55001 5.06145 5.06145 4.55001 5.69234 4.55001ZM11.1925 23.208C11.1925 20.7779 9.22256 18.808 6.79246 18.808H5.69234C4.75769 18.808 4 18.0503 4 17.1156V5.69234C4 4.75769 4.75769 4 5.69234 4H17.1156C18.0503 4 18.808 4.75769 18.808 5.69234V6.79203C18.808 9.22213 20.7779 11.1921 23.208 11.1921H24.3082C25.2428 11.1921 26.0005 11.9498 26.0005 12.8844V24.3077C26.0005 25.2424 25.2428 26.0001 24.3082 26.0001H12.8849C11.9502 26.0001 11.1925 25.2424 11.1925 24.3077V23.208ZM18.808 16.1422C18.808 13.7121 20.7779 11.7421 23.208 11.7421H24.3082C24.9391 11.7421 25.4505 12.2536 25.4505 12.8844V24.3077C25.4505 24.9386 24.9391 25.4501 24.3082 25.4501H12.8849C12.254 25.4501 11.7425 24.9386 11.7425 24.3077V23.208C11.7425 20.7779 13.7125 18.808 16.1426 18.808H17.1156C18.0503 18.808 18.808 18.0503 18.808 17.1156V16.1422ZM13.8579 11.7421C16.288 11.7421 18.258 13.7121 18.258 16.1422V17.1156C18.258 17.7465 17.7465 18.258 17.1156 18.258H16.1426C13.7125 18.258 11.7425 16.288 11.7425 13.8579V12.8844C11.7425 12.2536 12.254 11.7421 12.8849 11.7421H13.8579Z" fill="#FFFFFF"/>
</svg>
