<svg width="30" height="30" viewBox="0 0 30 30" fill="none" xmlns="http://www.w3.org/2000/svg">
<g clip-path="url(#clip0_1234_1660)">
<path d="M15 0C6.72582 0 0 6.72582 0 15C0 23.2742 6.72582 30 15 30C23.2742 30 30 23.2742 30 15C30 6.72582 23.2742 0 15 0ZM13.5484 22.2581V21.2032C13.5484 20.4 14.1968 19.7516 15 19.7516C15.8032 19.7516 16.4516 20.4 16.4516 21.2032V22.2581C16.4516 23.0613 15.8032 23.7097 15 23.7097C14.1968 23.7097 13.5484 23.0613 13.5484 22.2581ZM16.4516 16.9742C16.4516 17.7677 15.8032 18.4258 15 18.4258C14.1968 18.4258 13.5484 17.7677 13.5484 16.9742V7.74194C13.5484 6.93869 14.1968 6.29032 15 6.29032C15.8032 6.29032 16.4516 6.93869 16.4516 7.74194V16.9742Z" fill="#CCCCCC"/>
</g>
<defs>
<clipPath id="clip0_1234_1660">
<rect width="30" height="30" fill="white"/>
</clipPath>
</defs>
</svg>
