<svg width="30" height="30" viewBox="0 0 30 30" fill="none" xmlns="http://www.w3.org/2000/svg">
<path d="M15 0C12.0333 0 9.13319 0.879735 6.66645 2.52796C4.19971 4.17618 2.27713 6.51886 1.14181 9.25975C0.00649917 12.0006 -0.290551 15.0166 0.288227 17.9264C0.867006 20.8361 2.29562 23.5088 4.3934 25.6066C6.49119 27.7044 9.16394 29.133 12.0737 29.7118C14.9834 30.2906 17.9994 29.9935 20.7403 28.8582C23.4811 27.7229 25.8238 25.8003 27.472 23.3335C29.1203 20.8668 30 17.9667 30 15C29.9954 11.0232 28.4136 7.21052 25.6015 4.39847C22.7895 1.58642 18.9768 0.00459636 15 0ZM8.07693 16.7308C7.73461 16.7308 7.39999 16.6293 7.11537 16.4391C6.83074 16.2489 6.6089 15.9786 6.47791 15.6623C6.34691 15.3461 6.31263 14.9981 6.37942 14.6623C6.4462 14.3266 6.61104 14.0182 6.85309 13.7762C7.09514 13.5341 7.40354 13.3693 7.73927 13.3025C8.07501 13.2357 8.42301 13.27 8.73926 13.401C9.05552 13.532 9.32583 13.7538 9.51601 14.0384C9.70619 14.3231 9.8077 14.6577 9.8077 15C9.80767 15.459 9.62532 15.8992 9.30074 16.2238C8.97616 16.5484 8.53595 16.7307 8.07693 16.7308ZM15 16.7308C14.6577 16.7308 14.3231 16.6293 14.0384 16.4391C13.7538 16.2489 13.532 15.9786 13.401 15.6623C13.27 15.3461 13.2357 14.9981 13.3025 14.6623C13.3693 14.3266 13.5341 14.0182 13.7762 13.7762C14.0182 13.5341 14.3266 13.3693 14.6623 13.3025C14.9981 13.2357 15.3461 13.27 15.6623 13.401C15.9786 13.532 16.2489 13.7538 16.4391 14.0384C16.6293 14.3231 16.7308 14.6577 16.7308 15C16.7308 15.459 16.5484 15.8992 16.2238 16.2238C15.8992 16.5484 15.459 16.7307 15 16.7308ZM21.9231 16.7308C21.5808 16.7308 21.2461 16.6293 20.9615 16.4391C20.6769 16.2489 20.4551 15.9786 20.3241 15.6623C20.1931 15.3461 20.1588 14.9981 20.2256 14.6623C20.2923 14.3266 20.4572 14.0182 20.6992 13.7762C20.9413 13.5341 21.2497 13.3693 21.5854 13.3025C21.9212 13.2357 22.2692 13.27 22.5854 13.401C22.9017 13.532 23.172 13.7538 23.3622 14.0384C23.5523 14.3231 23.6538 14.6577 23.6538 15C23.6538 15.459 23.4715 15.8992 23.1469 16.2238C22.8223 16.5484 22.3821 16.7307 21.9231 16.7308Z" fill="#FBD654"/>
</svg>
