<svg width="15" height="15" viewBox="0 0 15 15" fill="none" xmlns="http://www.w3.org/2000/svg">
<path d="M8.4361 0.798658C8.4361 0.357187 8.0749 0 7.63343 0C7.19196 0 6.83075 0.357187 6.83075 0.798658V6.85886H0.798658C0.357187 6.85886 0 7.22007 0 7.66154C0 8.10301 0.357187 8.46421 0.798658 8.46421H6.83075V14.2013C6.83075 14.6428 7.19196 15 7.63343 15C8.0749 15 8.4361 14.6428 8.4361 14.2013V8.46421H14.2013C14.6428 8.46421 15 8.10301 15 7.66154C15 7.22007 14.6428 6.85886 14.2013 6.85886H8.4361V0.798658Z" fill="#EDEDED"/>
</svg>
