<svg width="30" height="30" viewBox="0 0 30 30" fill="none" xmlns="http://www.w3.org/2000/svg">
<g clip-path="url(#clip0_1242_1537)">
<path d="M15 0C12.0333 0 9.13319 0.879735 6.66645 2.52796C4.19971 4.17618 2.27713 6.51886 1.14181 9.25975C0.00649927 12.0006 -0.290551 15.0166 0.288227 17.9264C0.867006 20.8361 2.29562 23.5088 4.3934 25.6066C6.49119 27.7044 9.16393 29.133 12.0736 29.7118C14.9834 30.2906 17.9994 29.9935 20.7403 28.8582C23.4811 27.7229 25.8238 25.8003 27.472 23.3335C29.1203 20.8668 30 17.9667 30 15C29.9954 11.0232 28.4136 7.21052 25.6015 4.39847C22.7895 1.58642 18.9768 0.00459636 15 0ZM20.4312 18.7996C20.5385 18.9067 20.6237 19.0339 20.6818 19.1739C20.7399 19.3139 20.7699 19.464 20.77 19.6156C20.7701 19.7672 20.7403 19.9174 20.6823 20.0575C20.6243 20.1976 20.5393 20.3248 20.4321 20.4321C20.3249 20.5393 20.1976 20.6243 20.0575 20.6823C19.9174 20.7403 19.7673 20.7701 19.6156 20.77C19.464 20.7699 19.3139 20.7399 19.1739 20.6818C19.0339 20.6237 18.9067 20.5385 18.7996 20.4312L15 16.6316L11.2004 20.4312C10.984 20.6472 10.6906 20.7684 10.3849 20.7682C10.0791 20.7681 9.7859 20.6465 9.56968 20.4303C9.35347 20.2141 9.23193 19.9209 9.23177 19.6151C9.2316 19.3094 9.35283 19.016 9.56881 18.7996L13.3684 15L9.56881 11.2004C9.35283 10.984 9.2316 10.6906 9.23177 10.3849C9.23193 10.0791 9.35347 9.78589 9.56968 9.56968C9.7859 9.35346 10.0791 9.23192 10.3849 9.23176C10.6906 9.2316 10.984 9.35282 11.2004 9.56881L15 13.3684L18.7996 9.56881C19.016 9.35282 19.3094 9.2316 19.6151 9.23176C19.9209 9.23192 20.2141 9.35346 20.4303 9.56968C20.6465 9.78589 20.7681 10.0791 20.7682 10.3849C20.7684 10.6906 20.6472 10.984 20.4312 11.2004L16.6316 15L20.4312 18.7996Z" fill="#FF0000"/>
</g>
<defs>
<clipPath id="clip0_1242_1537">
<rect width="30" height="30" fill="white"/>
</clipPath>
</defs>
</svg>
