<svg width="20" height="20" viewBox="0 0 20 20" fill="none" xmlns="http://www.w3.org/2000/svg">
<path d="M8.29208 16.3353C3.85823 16.3353 0.249512 12.7265 0.249512 8.29269C0.249512 3.85884 3.85823 0.250122 8.29208 0.250122C12.7259 0.250122 16.3347 3.85884 16.3347 8.29269C16.3347 12.7265 12.7259 16.3353 8.29208 16.3353ZM8.29208 2.41734C5.05119 2.41734 2.41673 5.0518 2.41673 8.29269C2.41673 11.5336 5.05119 14.168 8.29208 14.168C11.533 14.168 14.1674 11.5336 14.1674 8.29269C14.1674 5.0518 11.533 2.41734 8.29208 2.41734Z" fill="#828282"/>
<path d="M18.1247 19.7499C17.8463 19.7499 17.568 19.6456 17.3592 19.4318L12.1748 14.2474C11.7523 13.8249 11.7523 13.1389 12.1748 12.7164C12.5973 12.2939 13.2833 12.2939 13.7058 12.7164L18.8902 17.9008C19.3127 18.3233 19.3127 19.0093 18.8902 19.4318C18.6764 19.6456 18.4031 19.7499 18.1247 19.7499Z" fill="#828282"/>
</svg>
