<svg width="27" height="19" viewBox="0 0 27 19" fill="none" xmlns="http://www.w3.org/2000/svg">
<path d="M2 7.64658H25L17.18 1M14.88 11.8688H2L9.82 18" stroke="#CCCCCC" stroke-width="1.4" stroke-linecap="round" stroke-linejoin="round"/>
<path d="M20.6491 6.91016C17.1474 6.91016 14.2982 9.62208 14.2982 12.955C14.2982 16.288 17.1474 18.9999 20.6491 18.9999C24.1508 18.9999 27 16.288 27 12.955C27 9.62208 24.1508 6.91016 20.6491 6.91016ZM20.6491 17.6419C17.9304 17.6419 15.7206 15.5386 15.7206 12.9509C15.7206 10.3632 17.9304 8.25991 20.6491 8.25991C23.3678 8.25991 25.5776 10.3632 25.5776 12.9509C25.5776 15.5386 23.3678 17.6419 20.6491 17.6419Z" fill="#CCCCCC"/>
<path d="M23.3809 12.9594H21.3538V10.1729C21.3538 9.80029 21.0362 9.49805 20.6448 9.49805C20.2533 9.49805 19.9357 9.80029 19.9357 10.1729V14.3133H23.3809C23.7767 14.3133 24.0899 14.011 24.0899 13.6342C24.0899 13.2575 23.7724 12.9594 23.3809 12.9594Z" fill="#CCCCCC"/>
</svg>
