<svg width="27" height="19" viewBox="0 0 27 19" fill="none" xmlns="http://www.w3.org/2000/svg">
<g clip-path="url(#clip0_301_2198)">
<path d="M20.6491 6.91016C17.1474 6.91016 14.2982 9.62208 14.2982 12.955C14.2982 16.288 17.1474 18.9999 20.6491 18.9999C24.1508 18.9999 27 16.288 27 12.955C27 9.62208 24.1508 6.91016 20.6491 6.91016ZM20.6491 17.6419C17.9304 17.6419 15.7206 15.5386 15.7206 12.9509C15.7206 10.3632 17.9304 8.25991 20.6491 8.25991C23.3678 8.25991 25.5776 10.3632 25.5776 12.9509C25.5776 15.5386 23.3678 17.6419 20.6491 17.6419Z" fill="#CCCCCC"/>
<path d="M3.2668 18.9959H14.4722C14.8637 18.9959 15.1812 18.6936 15.1812 18.321C15.1812 17.9484 14.8637 17.6461 14.4722 17.6461H3.27115C2.24891 17.6461 1.42243 16.8553 1.42243 15.8865V7.24973H15.5858C15.9773 7.24973 16.2948 6.94748 16.2948 6.57485C16.2948 6.20222 15.9773 5.89998 15.5858 5.89998H1.41808V3.11353C1.41808 2.14055 2.24891 1.35389 3.2668 1.35389H23.7332C24.7554 1.35389 25.5819 2.14469 25.5819 3.11353V7.24145C25.5819 7.61408 25.8995 7.91632 26.291 7.91632C26.6825 7.91632 27 7.61408 27 7.24145L26.9956 3.10939C26.9956 1.39529 25.5297 0 23.7289 0H3.2668C1.46593 0 0 1.39529 0 3.10939V15.8823C0 17.6006 1.46593 18.9959 3.2668 18.9959Z" fill="#CCCCCC"/>
<path d="M23.3809 12.9594H21.3538V10.1729C21.3538 9.80029 21.0362 9.49805 20.6448 9.49805C20.2533 9.49805 19.9357 9.80029 19.9357 10.1729V14.3133H23.3809C23.7767 14.3133 24.0899 14.011 24.0899 13.6342C24.0899 13.2575 23.7724 12.9594 23.3809 12.9594Z" fill="#CCCCCC"/>
<path d="M10.4616 14.499C10.0701 14.499 9.75253 14.8013 9.75253 15.1739C9.75253 15.5465 10.0701 15.8488 10.4616 15.8488H11.262C11.6535 15.8488 11.971 15.5465 11.971 15.1739C11.971 14.8013 11.6535 14.499 11.262 14.499H10.4616Z" fill="#CCCCCC"/>
<path d="M4.01498 11.0586C3.62348 11.0586 3.30594 11.3608 3.30594 11.7335V14.1431C3.30594 15.083 4.11068 15.849 5.09811 15.849H7.71242C8.10391 15.849 8.42145 15.5467 8.42145 15.1741C8.42145 14.8015 8.10391 14.4992 7.71242 14.4992H5.09811C4.89366 14.4992 4.72836 14.3419 4.72401 14.1431V11.7335C4.72401 11.3608 4.40647 11.0586 4.01498 11.0586Z" fill="#CCCCCC"/>
</g>
<defs>
<clipPath id="clip0_301_2198">
<rect width="27" height="19" fill="white"/>
</clipPath>
</defs>
</svg>
